<?xml version="1.0" standalone="no"?>
<!DOCTYPE svg PUBLIC "-//W3C//DTD SVG 20010904//EN"
 "http://www.w3.org/TR/2001/REC-SVG-20010904/DTD/svg10.dtd">
<svg version="1.0" xmlns="http://www.w3.org/2000/svg"
 width="613.000000pt" height="618.000000pt" viewBox="0 0 613.000000 618.000000"
 preserveAspectRatio="xMidYMid meet">

<g transform="translate(0.000000,618.000000) scale(0.100000,-0.100000)"
fill="#000000" stroke="none">
<path d="M1888 5117 l-1168 -672 0 -1355 0 -1355 1117 -645 c614 -355 1142
-659 1172 -676 l56 -31 1170 677 1170 676 0 1354 0 1355 -1165 672 c-641 369
-1169 672 -1175 672 -5 1 -535 -302 -1177 -672z m-259 -1763 c31 -7 32 -8 29
-58 l-3 -51 -207 -3 -208 -2 0 -150 0 -150 184 0 c102 0 196 -4 210 -10 23 -8
26 -15 26 -60 l0 -50 -227 1 c-352 1 -346 -3 -351 252 -4 190 4 234 45 266 24
20 39 21 248 21 122 0 237 -3 254 -6z m622 -4 c19 -6 46 -22 60 -36 24 -25 24
-27 24 -231 l0 -205 -33 -29 -32 -29 -188 0 c-200 0 -251 8 -288 45 -24 24
-24 27 -24 231 l0 206 31 29 31 29 192 0 c105 0 207 -5 227 -10z m747 4 c19
-6 22 -13 22 -60 l0 -54 -210 0 -210 0 0 -150 0 -150 179 0 c98 0 193 -3 210
-6 30 -6 31 -8 31 -60 l0 -54 -217 0 c-241 1 -284 6 -322 45 l-26 25 0 206 0
206 33 29 32 29 228 0 c125 0 237 -3 250 -6z m632 -8 c19 -7 45 -28 58 -46 21
-31 22 -43 22 -214 0 -163 -2 -184 -20 -214 -11 -18 -32 -37 -46 -42 -14 -6
-107 -10 -207 -9 -299 1 -301 2 -305 252 -4 190 4 234 45 266 24 20 38 21 222
20 130 0 208 -5 231 -13z m671 4 c19 -6 46 -22 60 -36 24 -25 24 -27 24 -231
l0 -205 -33 -29 -32 -29 -188 0 c-200 0 -251 8 -288 45 -24 24 -24 27 -24 231
l0 206 31 29 31 29 192 0 c105 0 207 -5 227 -10z m464 -148 l150 -147 3 153 3
152 52 0 c28 0 62 -3 75 -6 l22 -6 0 -248 c0 -285 0 -286 -74 -275 -36 6 -58
24 -186 151 -80 79 -149 144 -153 144 -4 0 -7 -67 -7 -150 l0 -150 -44 0 c-24
0 -58 3 -75 6 l-31 7 0 245 c0 219 2 247 17 265 14 15 26 18 58 12 34 -5 60
-25 190 -153z"/>
<path d="M1920 3090 l0 -150 135 0 135 0 0 150 0 150 -135 0 -135 0 0 -150z"/>
<path d="M3290 3090 l0 -150 135 0 135 0 0 150 0 150 -135 0 -135 0 0 -150z"/>
<path d="M3970 3090 l0 -150 135 0 135 0 0 150 0 150 -135 0 -135 0 0 -150z"/>
</g>
</svg>
